<mxfile host="app.diagrams.net" agent="Mozilla/5.0 (Windows NT 10.0; Win64; x64) AppleWebKit/537.36 (KHTML, like Gecko) Chrome/129.0.0.0 Safari/537.36" version="24.7.17">
  <diagram id="XvOCvcdgLnaaEPPs9Cq9" name="Side-1">
    <mxGraphModel grid="0" page="0" gridSize="10" guides="0" tooltips="1" connect="0" arrows="1" fold="1" pageScale="1" pageWidth="827" pageHeight="1169" background="#ffffff" math="0" shadow="0">
      <root>
        <mxCell id="0" />
        <mxCell id="1" parent="0" />
        <mxCell id="115" style="edgeStyle=entityRelationEdgeStyle;html=1;startArrow=ERmany;startFill=0;endArrow=ERone;endFill=0;jettySize=auto;orthogonalLoop=1;rounded=1;entryX=0.015;entryY=0.544;entryDx=0;entryDy=0;entryPerimeter=0;" edge="1" parent="1" source="100" target="2UFrwbSW_omafK2SVNSM-120">
          <mxGeometry relative="1" as="geometry">
            <mxPoint x="270" y="60" as="targetPoint" />
          </mxGeometry>
        </mxCell>
        <mxCell id="100" value="touristattraction_tag" style="swimlane;fontStyle=0;childLayout=stackLayout;horizontal=1;startSize=26;fillColor=#e0e0e0;horizontalStack=0;resizeParent=1;resizeLast=0;collapsible=1;marginBottom=0;swimlaneFillColor=#ffffff;align=center;" vertex="1" parent="1">
          <mxGeometry x="180" y="282" width="225" height="78" as="geometry" />
        </mxCell>
        <mxCell id="101" value="tag_id INT" style="shape=partialRectangle;top=0;left=0;right=0;bottom=0;align=left;verticalAlign=top;spacingTop=-2;fillColor=none;spacingLeft=34;spacingRight=4;overflow=hidden;rotatable=0;points=[[0,0.5],[1,0.5]];portConstraint=eastwest;dropTarget=0;" vertex="1" parent="100">
          <mxGeometry y="26" width="225" height="26" as="geometry" />
        </mxCell>
        <mxCell id="102" value="" style="shape=partialRectangle;top=0;left=0;bottom=0;fillColor=none;align=left;verticalAlign=middle;spacingLeft=4;spacingRight=4;overflow=hidden;rotatable=0;points=[];portConstraint=eastwest;part=1;" vertex="1" connectable="0" parent="101">
          <mxGeometry width="30" height="26" as="geometry" />
        </mxCell>
        <mxCell id="103" value="tourist_id INT" style="shape=partialRectangle;top=0;left=0;right=0;bottom=0;align=left;verticalAlign=top;spacingTop=-2;fillColor=none;spacingLeft=34;spacingRight=4;overflow=hidden;rotatable=0;points=[[0,0.5],[1,0.5]];portConstraint=eastwest;dropTarget=0;" vertex="1" parent="100">
          <mxGeometry y="52" width="225" height="26" as="geometry" />
        </mxCell>
        <mxCell id="104" value="" style="shape=partialRectangle;top=0;left=0;bottom=0;fillColor=none;align=left;verticalAlign=middle;spacingLeft=4;spacingRight=4;overflow=hidden;rotatable=0;points=[];portConstraint=eastwest;part=1;" vertex="1" connectable="0" parent="103">
          <mxGeometry width="30" height="26" as="geometry" />
        </mxCell>
        <mxCell id="2UFrwbSW_omafK2SVNSM-115" value="touristattraction" style="swimlane;fontStyle=0;childLayout=stackLayout;horizontal=1;startSize=26;fillColor=#e0e0e0;horizontalStack=0;resizeParent=1;resizeLast=0;collapsible=1;marginBottom=0;swimlaneFillColor=#ffffff;align=center;" vertex="1" parent="1">
          <mxGeometry x="583" y="226" width="220" height="158" as="geometry" />
        </mxCell>
        <mxCell id="2UFrwbSW_omafK2SVNSM-116" value="tname: VARCHAR(255)" style="shape=partialRectangle;top=0;left=0;right=0;bottom=0;align=left;verticalAlign=top;spacingTop=-2;fillColor=none;spacingLeft=34;spacingRight=4;overflow=hidden;rotatable=0;points=[[0,0.5],[1,0.5]];portConstraint=eastwest;dropTarget=0;" vertex="1" parent="2UFrwbSW_omafK2SVNSM-115">
          <mxGeometry y="26" width="220" height="26" as="geometry" />
        </mxCell>
        <mxCell id="2UFrwbSW_omafK2SVNSM-117" value="" style="shape=partialRectangle;top=0;left=0;bottom=0;fillColor=none;align=left;verticalAlign=middle;spacingLeft=4;spacingRight=4;overflow=hidden;rotatable=0;points=[];portConstraint=eastwest;part=1;" vertex="1" connectable="0" parent="2UFrwbSW_omafK2SVNSM-116">
          <mxGeometry width="30" height="26" as="geometry" />
        </mxCell>
        <mxCell id="2UFrwbSW_omafK2SVNSM-118" value="description: VARCHAR(255)" style="shape=partialRectangle;top=0;left=0;right=0;bottom=0;align=left;verticalAlign=top;spacingTop=-2;fillColor=none;spacingLeft=34;spacingRight=4;overflow=hidden;rotatable=0;points=[[0,0.5],[1,0.5]];portConstraint=eastwest;dropTarget=0;" vertex="1" parent="2UFrwbSW_omafK2SVNSM-115">
          <mxGeometry y="52" width="220" height="26" as="geometry" />
        </mxCell>
        <mxCell id="2UFrwbSW_omafK2SVNSM-119" value="" style="shape=partialRectangle;top=0;left=0;bottom=0;fillColor=none;align=left;verticalAlign=middle;spacingLeft=4;spacingRight=4;overflow=hidden;rotatable=0;points=[];portConstraint=eastwest;part=1;" vertex="1" connectable="0" parent="2UFrwbSW_omafK2SVNSM-118">
          <mxGeometry width="30" height="26" as="geometry" />
        </mxCell>
        <mxCell id="2UFrwbSW_omafK2SVNSM-120" value="pris: INT" style="shape=partialRectangle;top=0;left=0;right=0;bottom=0;align=left;verticalAlign=top;spacingTop=-2;fillColor=none;spacingLeft=34;spacingRight=4;overflow=hidden;rotatable=0;points=[[0,0.5],[1,0.5]];portConstraint=eastwest;dropTarget=0;" vertex="1" parent="2UFrwbSW_omafK2SVNSM-115">
          <mxGeometry y="78" width="220" height="26" as="geometry" />
        </mxCell>
        <mxCell id="2UFrwbSW_omafK2SVNSM-121" value="" style="shape=partialRectangle;top=0;left=0;bottom=0;fillColor=none;align=left;verticalAlign=middle;spacingLeft=4;spacingRight=4;overflow=hidden;rotatable=0;points=[];portConstraint=eastwest;part=1;" vertex="1" connectable="0" parent="2UFrwbSW_omafK2SVNSM-120">
          <mxGeometry width="30" height="26" as="geometry" />
        </mxCell>
        <mxCell id="2UFrwbSW_omafK2SVNSM-122" value="tourist_id: INT (primær nøgle)" style="shape=partialRectangle;top=0;left=0;right=0;bottom=0;align=left;verticalAlign=top;spacingTop=-2;fillColor=none;spacingLeft=34;spacingRight=4;overflow=hidden;rotatable=0;points=[[0,0.5],[1,0.5]];portConstraint=eastwest;dropTarget=0;" vertex="1" parent="2UFrwbSW_omafK2SVNSM-115">
          <mxGeometry y="104" width="220" height="26" as="geometry" />
        </mxCell>
        <mxCell id="2UFrwbSW_omafK2SVNSM-123" value="" style="shape=partialRectangle;top=0;left=0;bottom=0;fillColor=none;align=left;verticalAlign=middle;spacingLeft=4;spacingRight=4;overflow=hidden;rotatable=0;points=[];portConstraint=eastwest;part=1;" vertex="1" connectable="0" parent="2UFrwbSW_omafK2SVNSM-122">
          <mxGeometry width="30" height="26" as="geometry" />
        </mxCell>
        <mxCell id="2UFrwbSW_omafK2SVNSM-124" value="city_id: INT (fremmed nøgle)" style="shape=partialRectangle;top=0;left=0;right=0;bottom=0;align=left;verticalAlign=top;spacingTop=-2;fillColor=none;spacingLeft=34;spacingRight=4;overflow=hidden;rotatable=0;points=[[0,0.5],[1,0.5]];portConstraint=eastwest;dropTarget=0;" vertex="1" parent="2UFrwbSW_omafK2SVNSM-115">
          <mxGeometry y="130" width="220" height="26" as="geometry" />
        </mxCell>
        <mxCell id="2UFrwbSW_omafK2SVNSM-125" value="" style="shape=partialRectangle;top=0;left=0;bottom=0;fillColor=none;align=left;verticalAlign=middle;spacingLeft=4;spacingRight=4;overflow=hidden;rotatable=0;points=[];portConstraint=eastwest;part=1;" vertex="1" connectable="0" parent="2UFrwbSW_omafK2SVNSM-124">
          <mxGeometry width="30" height="26" as="geometry" />
        </mxCell>
        <mxCell id="2UFrwbSW_omafK2SVNSM-130" value="city" style="swimlane;fontStyle=0;childLayout=stackLayout;horizontal=1;startSize=26;fillColor=#e0e0e0;horizontalStack=0;resizeParent=1;resizeLast=0;collapsible=1;marginBottom=0;swimlaneFillColor=#ffffff;align=center;" vertex="1" parent="1">
          <mxGeometry x="898" y="256" width="220" height="106" as="geometry" />
        </mxCell>
        <mxCell id="2UFrwbSW_omafK2SVNSM-131" value="name: VARCHAR(255)" style="shape=partialRectangle;top=0;left=0;right=0;bottom=0;align=left;verticalAlign=top;spacingTop=-2;fillColor=none;spacingLeft=34;spacingRight=4;overflow=hidden;rotatable=0;points=[[0,0.5],[1,0.5]];portConstraint=eastwest;dropTarget=0;" vertex="1" parent="2UFrwbSW_omafK2SVNSM-130">
          <mxGeometry y="26" width="220" height="26" as="geometry" />
        </mxCell>
        <mxCell id="2UFrwbSW_omafK2SVNSM-132" value="" style="shape=partialRectangle;top=0;left=0;bottom=0;fillColor=none;align=left;verticalAlign=middle;spacingLeft=4;spacingRight=4;overflow=hidden;rotatable=0;points=[];portConstraint=eastwest;part=1;" vertex="1" connectable="0" parent="2UFrwbSW_omafK2SVNSM-131">
          <mxGeometry width="30" height="26" as="geometry" />
        </mxCell>
        <mxCell id="2UFrwbSW_omafK2SVNSM-133" value="location: INT" style="shape=partialRectangle;top=0;left=0;right=0;bottom=0;align=left;verticalAlign=top;spacingTop=-2;fillColor=none;spacingLeft=34;spacingRight=4;overflow=hidden;rotatable=0;points=[[0,0.5],[1,0.5]];portConstraint=eastwest;dropTarget=0;" vertex="1" parent="2UFrwbSW_omafK2SVNSM-130">
          <mxGeometry y="52" width="220" height="26" as="geometry" />
        </mxCell>
        <mxCell id="2UFrwbSW_omafK2SVNSM-134" value="" style="shape=partialRectangle;top=0;left=0;bottom=0;fillColor=none;align=left;verticalAlign=middle;spacingLeft=4;spacingRight=4;overflow=hidden;rotatable=0;points=[];portConstraint=eastwest;part=1;" vertex="1" connectable="0" parent="2UFrwbSW_omafK2SVNSM-133">
          <mxGeometry width="30" height="26" as="geometry" />
        </mxCell>
        <mxCell id="2UFrwbSW_omafK2SVNSM-135" value="city_id: INT (primær nøgle)" style="shape=partialRectangle;top=0;left=0;right=0;bottom=0;align=left;verticalAlign=top;spacingTop=-2;fillColor=none;spacingLeft=34;spacingRight=4;overflow=hidden;rotatable=0;points=[[0,0.5],[1,0.5]];portConstraint=eastwest;dropTarget=0;" vertex="1" parent="2UFrwbSW_omafK2SVNSM-130">
          <mxGeometry y="78" width="220" height="26" as="geometry" />
        </mxCell>
        <mxCell id="2UFrwbSW_omafK2SVNSM-136" value="" style="shape=partialRectangle;top=0;left=0;bottom=0;fillColor=none;align=left;verticalAlign=middle;spacingLeft=4;spacingRight=4;overflow=hidden;rotatable=0;points=[];portConstraint=eastwest;part=1;" vertex="1" connectable="0" parent="2UFrwbSW_omafK2SVNSM-135">
          <mxGeometry width="30" height="26" as="geometry" />
        </mxCell>
        <mxCell id="2UFrwbSW_omafK2SVNSM-141" value="tag" style="swimlane;fontStyle=0;childLayout=stackLayout;horizontal=1;startSize=26;fillColor=#e0e0e0;horizontalStack=0;resizeParent=1;resizeLast=0;collapsible=1;marginBottom=0;swimlaneFillColor=#ffffff;align=center;" vertex="1" parent="1">
          <mxGeometry x="-234" y="286" width="220" height="80" as="geometry" />
        </mxCell>
        <mxCell id="2UFrwbSW_omafK2SVNSM-142" value="tag_name: VARCHAR(255)" style="shape=partialRectangle;top=0;left=0;right=0;bottom=0;align=left;verticalAlign=top;spacingTop=-2;fillColor=none;spacingLeft=34;spacingRight=4;overflow=hidden;rotatable=0;points=[[0,0.5],[1,0.5]];portConstraint=eastwest;dropTarget=0;" vertex="1" parent="2UFrwbSW_omafK2SVNSM-141">
          <mxGeometry y="26" width="220" height="26" as="geometry" />
        </mxCell>
        <mxCell id="2UFrwbSW_omafK2SVNSM-143" value="" style="shape=partialRectangle;top=0;left=0;bottom=0;fillColor=none;align=left;verticalAlign=middle;spacingLeft=4;spacingRight=4;overflow=hidden;rotatable=0;points=[];portConstraint=eastwest;part=1;" vertex="1" connectable="0" parent="2UFrwbSW_omafK2SVNSM-142">
          <mxGeometry width="30" height="26" as="geometry" />
        </mxCell>
        <mxCell id="2UFrwbSW_omafK2SVNSM-144" value="tag_id: INT (primær nøgle)" style="shape=partialRectangle;top=0;left=0;right=0;bottom=0;align=left;verticalAlign=top;spacingTop=-2;fillColor=none;spacingLeft=34;spacingRight=4;overflow=hidden;rotatable=0;points=[[0,0.5],[1,0.5]];portConstraint=eastwest;dropTarget=0;" vertex="1" parent="2UFrwbSW_omafK2SVNSM-141">
          <mxGeometry y="52" width="220" height="26" as="geometry" />
        </mxCell>
        <mxCell id="2UFrwbSW_omafK2SVNSM-145" value="" style="shape=partialRectangle;top=0;left=0;bottom=0;fillColor=none;align=left;verticalAlign=middle;spacingLeft=4;spacingRight=4;overflow=hidden;rotatable=0;points=[];portConstraint=eastwest;part=1;" vertex="1" connectable="0" parent="2UFrwbSW_omafK2SVNSM-144">
          <mxGeometry width="30" height="26" as="geometry" />
        </mxCell>
        <mxCell id="2UFrwbSW_omafK2SVNSM-148" style="edgeStyle=entityRelationEdgeStyle;html=1;startArrow=ERmany;startFill=0;endArrow=ERone;endFill=0;jettySize=auto;orthogonalLoop=1;rounded=1;entryX=1.001;entryY=0.562;entryDx=0;entryDy=0;entryPerimeter=0;exitX=0.001;exitY=0.838;exitDx=0;exitDy=0;exitPerimeter=0;" edge="1" parent="1" source="101" target="2UFrwbSW_omafK2SVNSM-142">
          <mxGeometry relative="1" as="geometry">
            <mxPoint x="435" y="242" as="sourcePoint" />
            <mxPoint x="751" y="281" as="targetPoint" />
          </mxGeometry>
        </mxCell>
        <mxCell id="2UFrwbSW_omafK2SVNSM-172" value="Item" style="shape=partialRectangle;fillColor=none;align=left;verticalAlign=middle;strokeColor=none;spacingLeft=34;rotatable=0;points=[[0,0.5],[1,0.5]];portConstraint=eastwest;dropTarget=0;" vertex="1" parent="1">
          <mxGeometry x="326" y="331" width="90" height="30" as="geometry" />
        </mxCell>
        <mxCell id="2UFrwbSW_omafK2SVNSM-173" value="" style="shape=partialRectangle;top=0;left=0;bottom=0;fillColor=none;stokeWidth=1;dashed=1;align=left;verticalAlign=middle;spacingLeft=4;spacingRight=4;overflow=hidden;rotatable=0;points=[];portConstraint=eastwest;part=1;" vertex="1" connectable="0" parent="2UFrwbSW_omafK2SVNSM-172">
          <mxGeometry width="30" height="30" as="geometry" />
        </mxCell>
        <mxCell id="LCny3VJCwJV4-U89YHmX-116" value="" style="edgeStyle=entityRelationEdgeStyle;fontSize=12;html=1;endArrow=ERoneToMany;startArrow=ERmandOne;rounded=0;exitX=-0.001;exitY=0.421;exitDx=0;exitDy=0;exitPerimeter=0;entryX=1.006;entryY=0.582;entryDx=0;entryDy=0;entryPerimeter=0;" edge="1" parent="1" source="2UFrwbSW_omafK2SVNSM-133" target="2UFrwbSW_omafK2SVNSM-120">
          <mxGeometry width="100" height="100" relative="1" as="geometry">
            <mxPoint x="1028.5" y="481.37799999999993" as="sourcePoint" />
            <mxPoint x="742" y="291" as="targetPoint" />
          </mxGeometry>
        </mxCell>
      </root>
    </mxGraphModel>
  </diagram>
</mxfile>
